<svg width="12" height="12" viewBox="0 0 12 12" xmlns="http://www.w3.org/2000/svg">
<path d="M5.98318 0.0259094C5.98318 0.537793 5.59786 0.95968 5.10144 1.01734L4.98503 1.02405L0.999025 1.02403V11.0018H10.999L10.9998 6.98104C10.9999 6.46817 11.386 6.04553 11.8834 5.98777L12 5.98104V11.5C12 11.7761 11.7761 12 11.5 12H0.5C0.223858 12 0 11.7761 0 11.5V0.525909C0 0.249767 0.223858 0.0259094 0.5 0.0259094H5.98318ZM11.9981 0V4.00418C11.4458 4.00418 10.9981 3.55647 10.9981 3.00418L10.998 1.548L5.74888 6.78844C5.35908 6.39936 5.35849 5.76795 5.74757 5.37815L5.74888 5.37684L9.99152 1.14205C10.0478 1.08588 10.1091 1.03779 10.174 0.997796L8.98924 0.998126C8.47736 0.998138 8.05547 0.612831 7.99781 0.116426L7.99109 0H11.9981Z" />
</svg>
